<svg xmlns="http://www.w3.org/2000/svg"  viewBox="0 0 100 100" width="200px" height="200px"><g><circle cx="50" cy="50" r="37" fill="#e6edb7"/><circle cx="83" cy="15" r="4" fill="#f1bc19"/><circle cx="87" cy="24" r="2" fill="#9f8066"/><circle cx="81" cy="76" r="2" fill="#fbcd59"/><circle cx="15" cy="63" r="4" fill="#fbcd59"/><circle cx="25" cy="87" r="2" fill="#9f8066"/><circle cx="19.5" cy="43.5" r="2.5" fill="#fff"/><circle cx="79.5" cy="33.5" r="1.5" fill="#fff"/><circle cx="77" cy="13" r="1" fill="#f1bc19"/><path fill="#fdfcef" d="M66.719,73H35.281C31.26,73,28,69.74,28,65.719V34.281C28,30.26,31.26,27,35.281,27h31.438 C70.74,27,74,30.26,74,34.281v31.438C74,69.74,70.74,73,66.719,73z"/><path fill="#472b29" d="M67.719,27.4c3.243,0,5.881,2.638,5.881,5.881v33.438c0,3.243-2.638,5.881-5.881,5.881H34.281 c-3.243,0-5.881-2.638-5.881-5.881V33.281c0-3.243,2.638-5.881,5.881-5.881H67.719 M67.719,26H34.281C30.26,26,27,29.26,27,33.281 v33.438C27,70.74,30.26,74,34.281,74h33.438C71.74,74,75,70.74,75,66.719V33.281C75,29.26,71.74,26,67.719,26L67.719,26z"/><path fill="#472b29" d="M31.5,40.167c-0.276,0-0.5-0.224-0.5-0.5v-4.333C31,32.393,33.393,30,36.333,30h14 c0.276,0,0.5,0.224,0.5,0.5c0,0.276-0.224,0.5-0.5,0.5h-14C33.944,31,32,32.944,32,35.333v4.333 C32,39.943,31.776,40.167,31.5,40.167z"/><path fill="#472b29" d="M42.583,70h-6.25C33.393,70,31,67.607,31,64.667V44.333c0-0.276,0.224-0.5,0.5-0.5 s0.5,0.224,0.5,0.5v20.333C32,67.056,33.944,69,36.333,69h6.25c0.276,0,0.5,0.224,0.5,0.5C43.083,69.776,42.86,70,42.583,70z"/><path fill="#472b29" d="M65.667,70h-19.75c-0.276,0-0.5-0.224-0.5-0.5c0-0.276,0.224-0.5,0.5-0.5h19.75 C68.056,69,70,67.056,70,64.667v-5.083c0-0.276,0.224-0.5,0.5-0.5s0.5,0.224,0.5,0.5v5.083C71,67.607,68.607,70,65.667,70z"/><path fill="#472b29" d="M70.5,56.167c-0.276,0-0.5-0.224-0.5-0.5V35.333C70,32.944,68.056,31,65.667,31h-2.75 c-0.276,0-0.5-0.224-0.5-0.5c0-0.276,0.224-0.5,0.5-0.5h2.75C68.607,30,71,32.393,71,35.333v20.333 C71,55.943,70.776,56.167,70.5,56.167z"/><path fill="#472b29" d="M59.5,31h-6.25c-0.276,0-0.5-0.224-0.5-0.5s0.224-0.5,0.5-0.5h6.25c0.276,0,0.5,0.224,0.5,0.5 S59.776,31,59.5,31z"/><circle cx="40" cy="38" r="3" fill="#3678ba"/><path fill="#472b29" d="M39.994,41.251c-0.624,0-1.234-0.18-1.769-0.529c-0.727-0.474-1.226-1.203-1.405-2.053 c-0.179-0.85-0.016-1.718,0.458-2.445c0.474-0.727,1.203-1.226,2.053-1.405c0.848-0.179,1.718-0.016,2.445,0.458 c0.727,0.474,1.226,1.203,1.405,2.053c0.179,0.85,0.016,1.718-0.458,2.445c-0.474,0.727-1.203,1.226-2.053,1.405 C40.445,41.228,40.218,41.251,39.994,41.251z M40.005,35.249c-0.19,0-0.381,0.02-0.572,0.06c-0.719,0.151-1.336,0.574-1.737,1.189 c-0.401,0.615-0.539,1.35-0.388,2.069c0.151,0.719,0.574,1.336,1.189,1.737c0.615,0.401,1.348,0.539,2.068,0.388 c0.719-0.151,1.336-0.574,1.737-1.189v0c0.401-0.615,0.539-1.35,0.388-2.069c-0.151-0.719-0.574-1.336-1.189-1.737 C41.05,35.402,40.533,35.249,40.005,35.249z"/><path fill="#472b29" d="M39.99,42.913c-0.942,0-1.865-0.272-2.673-0.799c-0.116-0.075-0.148-0.23-0.073-0.346 c0.076-0.116,0.23-0.148,0.346-0.073c0.985,0.643,2.163,0.865,3.318,0.622c1.153-0.243,2.143-0.92,2.786-1.907 c0.644-0.987,0.865-2.166,0.622-3.319c-0.243-1.153-0.92-2.143-1.907-2.786c-1.208-0.788-2.729-0.935-4.066-0.394 c-0.129,0.051-0.274-0.01-0.326-0.138c-0.052-0.128,0.01-0.274,0.138-0.325c1.489-0.602,3.182-0.438,4.527,0.439 c1.099,0.717,1.853,1.818,2.123,3.102c0.27,1.284,0.024,2.596-0.692,3.695c-0.717,1.099-1.818,1.853-3.102,2.123 C40.672,42.878,40.33,42.913,39.99,42.913z"/><path fill="#472b29" d="M36,40.645c-0.085,0-0.168-0.043-0.214-0.122c-0.972-1.626-0.934-3.621,0.101-5.207 c0.076-0.116,0.23-0.148,0.346-0.073c0.116,0.075,0.148,0.23,0.073,0.346c-0.929,1.424-0.964,3.217-0.091,4.677 c0.071,0.118,0.032,0.272-0.086,0.343C36.088,40.634,36.044,40.645,36,40.645z"/><g><circle cx="40" cy="50" r="3" fill="#ee3e54"/><path fill="#472b29" d="M39.994,53.251c-0.624,0-1.234-0.18-1.769-0.529c-0.727-0.474-1.226-1.203-1.405-2.053 c-0.179-0.85-0.016-1.718,0.458-2.445c0.474-0.727,1.203-1.226,2.053-1.405c0.848-0.179,1.718-0.016,2.445,0.458 c0.727,0.474,1.226,1.203,1.405,2.053c0.179,0.85,0.016,1.718-0.458,2.445c-0.474,0.727-1.203,1.226-2.053,1.405 C40.445,53.228,40.218,53.251,39.994,53.251z M40.005,47.249c-0.19,0-0.381,0.02-0.572,0.06c-0.719,0.151-1.336,0.574-1.737,1.189 c-0.401,0.615-0.539,1.35-0.388,2.069c0.151,0.719,0.574,1.336,1.189,1.737c0.615,0.401,1.348,0.539,2.068,0.388 c0.719-0.151,1.336-0.574,1.737-1.189v0c0.401-0.615,0.539-1.35,0.388-2.069c-0.151-0.719-0.574-1.336-1.189-1.737 C41.05,47.402,40.533,47.249,40.005,47.249z"/></g><g><path fill="#472b29" d="M39.99,54.913c-0.942,0-1.865-0.272-2.673-0.799c-0.116-0.075-0.148-0.23-0.073-0.346 c0.076-0.116,0.23-0.148,0.346-0.073c0.985,0.643,2.163,0.865,3.318,0.622c1.153-0.243,2.143-0.92,2.786-1.907 c0.644-0.987,0.865-2.166,0.622-3.319c-0.243-1.153-0.92-2.143-1.907-2.786c-1.208-0.788-2.729-0.935-4.066-0.394 c-0.129,0.051-0.274-0.01-0.326-0.138c-0.052-0.128,0.01-0.274,0.138-0.325c1.489-0.602,3.182-0.438,4.527,0.439 c1.099,0.717,1.853,1.818,2.123,3.102c0.27,1.284,0.024,2.596-0.692,3.695c-0.717,1.099-1.818,1.853-3.102,2.123 C40.672,54.878,40.33,54.913,39.99,54.913z"/></g><g><path fill="#472b29" d="M36,52.645c-0.085,0-0.168-0.043-0.214-0.122c-0.972-1.626-0.934-3.621,0.101-5.207 c0.076-0.116,0.23-0.148,0.346-0.073c0.116,0.075,0.148,0.23,0.073,0.346c-0.929,1.424-0.964,3.217-0.091,4.677 c0.071,0.118,0.032,0.272-0.086,0.343C36.088,52.634,36.044,52.645,36,52.645z"/></g><g><circle cx="40" cy="62" r="3" fill="#eab436"/><path fill="#472b29" d="M39.994,65.251c-0.624,0-1.234-0.18-1.769-0.529c-0.727-0.474-1.226-1.203-1.405-2.053 c-0.179-0.85-0.016-1.718,0.458-2.445c0.474-0.727,1.203-1.226,2.053-1.405c0.848-0.179,1.718-0.016,2.445,0.458 c0.727,0.474,1.226,1.203,1.405,2.053c0.179,0.85,0.016,1.718-0.458,2.445c-0.474,0.727-1.203,1.226-2.053,1.405 C40.445,65.228,40.218,65.251,39.994,65.251z M40.005,59.249c-0.19,0-0.381,0.02-0.572,0.06c-0.719,0.151-1.336,0.574-1.737,1.189 c-0.401,0.615-0.539,1.35-0.388,2.069c0.151,0.719,0.574,1.336,1.189,1.737c0.615,0.401,1.348,0.539,2.068,0.388 c0.719-0.151,1.336-0.574,1.737-1.189v0c0.401-0.615,0.539-1.35,0.388-2.069c-0.151-0.719-0.574-1.336-1.189-1.737 C41.05,59.402,40.533,59.249,40.005,59.249z"/></g><g><path fill="#472b29" d="M39.99,66.913c-0.942,0-1.865-0.272-2.673-0.799c-0.116-0.075-0.148-0.23-0.073-0.346 c0.076-0.116,0.23-0.148,0.346-0.073c0.985,0.643,2.163,0.865,3.318,0.622c1.153-0.243,2.143-0.92,2.786-1.907 c0.644-0.987,0.865-2.166,0.622-3.319c-0.243-1.153-0.92-2.143-1.907-2.786c-1.208-0.788-2.729-0.935-4.066-0.394 c-0.129,0.051-0.274-0.01-0.326-0.138c-0.052-0.128,0.01-0.274,0.138-0.325c1.489-0.602,3.182-0.438,4.527,0.439 c1.099,0.717,1.853,1.818,2.123,3.102c0.27,1.284,0.024,2.596-0.692,3.695c-0.717,1.099-1.818,1.853-3.102,2.123 C40.672,66.878,40.33,66.913,39.99,66.913z"/></g><g><path fill="#472b29" d="M36,64.645c-0.085,0-0.168-0.043-0.214-0.122c-0.972-1.626-0.934-3.621,0.101-5.207 c0.076-0.116,0.23-0.148,0.346-0.073c0.116,0.075,0.148,0.23,0.073,0.346c-0.929,1.424-0.964,3.217-0.091,4.677 c0.071,0.118,0.032,0.272-0.086,0.343C36.088,64.634,36.044,64.645,36,64.645z"/></g><g><path fill="#472b29" d="M65.5,39h-17c-0.276,0-0.5-0.224-0.5-0.5s0.224-0.5,0.5-0.5h17c0.276,0,0.5,0.224,0.5,0.5 S65.776,39,65.5,39z"/></g><g><path fill="#472b29" d="M65.5,50h-17c-0.276,0-0.5-0.224-0.5-0.5s0.224-0.5,0.5-0.5h17c0.276,0,0.5,0.224,0.5,0.5 S65.776,50,65.5,50z"/></g><g><path fill="#472b29" d="M65.5,62h-17c-0.276,0-0.5-0.224-0.5-0.5s0.224-0.5,0.5-0.5h17c0.276,0,0.5,0.224,0.5,0.5 S65.776,62,65.5,62z"/></g></g></svg>